<svg xmlns="http://www.w3.org/2000/svg" width="20" height="21" fill="none"><path fill="#000" d="M20 10.232a10.105 10.105 0 0 0-1.636-5.392 10.017 10.017 0 0 0-4.261-3.66A9.946 9.946 0 0 0 3.459 2.746 10.068 10.068 0 0 0 .417 7.48a10.122 10.122 0 0 0-.033 5.638 10.07 10.07 0 0 0 2.986 4.77 9.973 9.973 0 0 0 5.067 2.406v-7.131h-2.5v-2.93h2.5V8.005a3.58 3.58 0 0 1 .958-2.856 3.536 3.536 0 0 1 2.792-1.093c.75.01 1.498.077 2.238.201v2.516h-1.25a1.441 1.441 0 0 0-1.191.4 1.46 1.46 0 0 0-.434 1.184v1.9h2.775l-.45 2.93h-2.313v7.043a9.985 9.985 0 0 0 6.06-3.426A10.1 10.1 0 0 0 20 10.232Z"/></svg>