<svg xmlns="http://www.w3.org/2000/svg" width="20" height="21" fill="none"><path fill="#000" fill-rule="evenodd" d="M0 4.118C0 1.844 1.79 0 4 0h12c2.21 0 4 1.844 4 4.118V16.47c0 2.274-1.79 4.117-4 4.117H4c-2.21 0-4-1.843-4-4.117V4.118Zm4-2.06c-1.105 0-2 .923-2 2.06V16.47c0 1.137.895 2.058 2 2.058h12c1.105 0 2-.921 2-2.058V4.118c0-1.137-.895-2.06-2-2.06H4Zm6 5.148c-1.657 0-3 1.382-3 3.088 0 1.706 1.343 3.088 3 3.088s3-1.382 3-3.088c0-1.706-1.343-3.088-3-3.088Zm-5 3.088c0-2.843 2.239-5.147 5-5.147s5 2.304 5 5.147c0 2.843-2.239 5.147-5 5.147s-5-2.304-5-5.147Zm10.5-4.118c.828 0 1.5-.69 1.5-1.544 0-.852-.672-1.544-1.5-1.544S14 3.78 14 4.632c0 .853.672 1.544 1.5 1.544Z" clip-rule="evenodd"/></svg>