<svg xmlns="http://www.w3.org/2000/svg" width="20" height="17" fill="none"><path fill="#000" d="M17.953 4.215c.008.177.012.353.012.531 0 5.423-4.128 11.675-11.675 11.675-2.317 0-4.474-.68-6.29-1.844a8.233 8.233 0 0 0 6.075-1.7 4.107 4.107 0 0 1-3.833-2.848 4.094 4.094 0 0 0 1.853-.07A4.106 4.106 0 0 1 .804 5.934v-.052a4.09 4.09 0 0 0 1.859.514A4.1 4.1 0 0 1 .837 2.98c0-.752.202-1.456.556-2.062A11.65 11.65 0 0 0 9.85 5.206a4.103 4.103 0 0 1 6.992-3.743 8.204 8.204 0 0 0 2.605-.996 4.113 4.113 0 0 1-1.804 2.27A8.21 8.21 0 0 0 20 2.093a8.34 8.34 0 0 1-2.047 2.123Z"/></svg>