<svg xmlns="http://www.w3.org/2000/svg" width="50" height="49" fill="none"><path fill="#0A0A0A" fill-rule="evenodd" d="M50 24.316v1.562a4.372 4.372 0 0 1-.928 1.465 173.976 173.976 0 0 1-.195 7.324c-.506 3.44-2.085 6.255-4.736 8.447.583 1.183 1.152 2.37 1.709 3.565.108.793-.234 1.248-1.026 1.367a1.446 1.446 0 0 1-.927-.488l-1.66-3.32a13.074 13.074 0 0 1-5.128 1.61c-8.073.066-16.145.066-24.218 0a13.074 13.074 0 0 1-5.127-1.61 37.27 37.27 0 0 1-1.905 3.564c-.951.431-1.537.139-1.757-.88a50.217 50.217 0 0 1 1.757-3.808c-2.654-2.198-4.233-5.014-4.736-8.447-.116-2.44-.182-4.88-.195-7.324A3.855 3.855 0 0 1 0 25.78v-1.465c.48-1.511 1.52-2.325 3.125-2.44-.016-6.12 0-12.24.049-18.36C3.646 1.74 4.769.618 6.543.145a35.753 35.753 0 0 1 6.445 0c2.054.671 3.16 2.087 3.32 4.249 1.835.548 2.99 1.753 3.467 3.613a39.09 39.09 0 0 1 0 3.906 1.494 1.494 0 0 1-.634.635c-2.67.065-5.339.065-8.008 0-.417-.124-.661-.4-.733-.83a28.249 28.249 0 0 1 0-3.32c.389-2.098 1.61-3.432 3.662-4.004-.102-1.324-.818-2.056-2.148-2.198a32.82 32.82 0 0 0-4.883.098c-.852.234-1.422.77-1.709 1.611-.049 5.99-.065 11.98-.049 17.97 13.965-.017 27.93 0 41.895.048 1.472.187 2.416.985 2.832 2.393ZM14.941 6.346c1.402.084 2.297.8 2.686 2.15.049.65.065 1.3.049 1.952H12.5c-.377-2.114.437-3.481 2.441-4.101ZM3.125 24.024c14.55-.017 29.102 0 43.652.048.895.146 1.204.65.928 1.514-.16.226-.371.372-.635.44-14.68.065-29.362.065-44.043 0-.877-.274-1.089-.812-.634-1.612a1.7 1.7 0 0 1 .732-.39Zm0 4.199h43.75a79.55 79.55 0 0 1-.147 6.054c-.695 4.114-2.958 6.995-6.787 8.643-1.04.399-2.115.659-3.222.781-7.813.065-15.625.065-23.438 0-4.616-.556-7.79-2.981-9.521-7.275a12.83 12.83 0 0 1-.489-2.149 79.566 79.566 0 0 1-.146-6.054Z" clip-rule="evenodd" opacity=".963"/></svg>