<svg xmlns="http://www.w3.org/2000/svg" width="50" height="46" fill="none"><path fill="#0A0A0A" fill-rule="evenodd" d="M8.542.007c10.972-.018 21.944 0 32.916.052 1.79.365 2.953 1.424 3.49 3.177.152 4.858.204 9.72.156 14.583 2.566.152 4.18 1.472 4.844 3.958.07 7.674.07 15.347 0 23.021a.488.488 0 0 1-.365.365c-1.632.07-3.264.07-4.895 0a.983.983 0 0 1-.26-.156 59.83 59.83 0 0 1-.157-6.042H5.729c.018 1.945 0 3.889-.052 5.833a.92.92 0 0 1-.364.365c-1.632.07-3.264.07-4.896 0a.488.488 0 0 1-.365-.365c-.07-7.57-.07-15.139 0-22.708.592-2.589 2.207-4.012 4.844-4.271a354.68 354.68 0 0 1 .156-14.583c.556-1.754 1.719-2.83 3.49-3.23Zm.208 1.77c10.977-.05 21.949.001 32.917.157.953.397 1.492 1.108 1.614 2.135.052 4.583.07 9.167.052 13.75h-6.77c.017-1.181 0-2.362-.053-3.542-.13-1.458-.807-2.587-2.03-3.385a5.178 5.178 0 0 0-1.563-.52 601.21 601.21 0 0 0-15.834 0c-1.624.303-2.752 1.223-3.385 2.76a7.672 7.672 0 0 0-.208 1.145c-.053 1.18-.07 2.361-.053 3.542h-6.77c-.018-4.583 0-9.167.052-13.75.186-1.21.864-1.974 2.031-2.292Zm8.542 10.313c5.282-.05 10.56.002 15.833.156.756.305 1.26.843 1.51 1.615a27.95 27.95 0 0 1 .157 3.958H15.208c-.017-1.146 0-2.292.052-3.437.187-1.21.864-1.975 2.032-2.292Zm-12.917 7.5c13.785-.018 27.57 0 41.354.052 1.302.33 2.118 1.146 2.448 2.448.151 3.816.204 7.636.156 11.458H1.771c-.018-3.75 0-7.5.052-11.25.338-1.397 1.19-2.3 2.552-2.708ZM1.667 35.215h46.666v2.083H1.667v-2.083Zm0 3.75h2.291v4.583H1.667v-4.583Zm44.375 0h2.291v4.583h-2.291v-4.583Z" clip-rule="evenodd" opacity=".965"/></svg>