<svg xmlns="http://www.w3.org/2000/svg" width="50" height="50" fill="none"><path fill="#0A0A0A" fill-rule="evenodd" d="M50 13.949v34.57c-.193.338-.486.55-.879.635-16.08.065-32.161.065-48.242 0A1.277 1.277 0 0 1 0 48.519V13.95c.14-.19.303-.368.488-.537A4194.25 4194.25 0 0 0 24.218.228c.603-.334 1.19-.301 1.759.098a4123.63 4123.63 0 0 0 23.535 13.086c.185.169.348.348.488.537ZM24.805 2.62c.285-.004.546.077.78.244L47.56 15.121c.097 10.579.13 21.158.097 31.738H43.36c.049-8.83 0-17.651-.146-26.465l-.44-.44a3217.24 3217.24 0 0 0-35.449 0 1.493 1.493 0 0 0-.635.636 3533.48 3533.48 0 0 0-.048 26.27H2.344c-.033-10.58 0-21.16.097-31.74 7.477-4.144 14.931-8.31 22.364-12.5ZM8.985 22.25h32.03v4.297H8.986V22.25Zm0 6.64h32.03v4.297H8.986V28.89Zm0 6.641h32.03v4.297H8.986V35.53Zm0 6.64h32.03v4.688H8.986v-4.687Z" clip-rule="evenodd" opacity=".974"/></svg>