<svg xmlns="http://www.w3.org/2000/svg" width="50" height="49" fill="none"><path fill="#0A0A0A" fill-rule="evenodd" d="M21.843 0c.56-.014.886.246.976.78a32.77 32.77 0 0 0-1.512 3.024 3.84 3.84 0 0 0 .293 2.828c.58.872 1.197 1.717 1.852 2.535 1.18 1.858 1.342 3.808.488 5.851a9.783 9.783 0 0 1-1.414 2.39c-.69.304-1.113.093-1.268-.635.378-.787.784-1.567 1.22-2.34.688-1.572.558-3.067-.39-4.486a20.337 20.337 0 0 1-2.146-3.12c-.503-1.488-.438-2.951.195-4.389A7.333 7.333 0 0 1 21.843.001Z" clip-rule="evenodd" opacity=".922"/><path fill="#0A0A0A" fill-rule="evenodd" d="M13.847 3.219c1.036-.14 1.377.283 1.024 1.267-.704.628-1.03 1.408-.975 2.34.105.244.235.472.39.683 2.5 2.11 2.646 4.368.439 6.778-.668.292-1.09.08-1.268-.634.351-.661.725-1.311 1.122-1.95.245-.673.147-1.29-.293-1.853a23.533 23.533 0 0 1-1.658-1.95c-.521-1.219-.423-2.39.293-3.511.33-.378.638-.768.926-1.17ZM29.352 3.219c.972-.15 1.346.24 1.122 1.17-.401.4-.726.856-.976 1.365-.273.703-.143 1.32.39 1.853 2.337 2.003 2.516 4.181.537 6.533-.463.403-.902.37-1.317-.097a1.583 1.583 0 0 1 0-.78c.364-.461.689-.949.976-1.463.26-.708.163-1.358-.293-1.95a8.46 8.46 0 0 1-1.853-2.438 3.469 3.469 0 0 1 .195-2.438 8.57 8.57 0 0 1 1.22-1.755Z" clip-rule="evenodd" opacity=".92"/><path fill="#0A0A0A" fill-rule="evenodd" d="M5.753 20.186c7.607-.016 15.213 0 22.82.049.414.334.495.74.243 1.219a.68.68 0 0 1-.341.244c-7.55 0-15.09.065-22.624.195a.923.923 0 0 0-.146.244c-.09 2.57-.058 5.138.097 7.703.15.824.344 1.637.585 2.438A55.32 55.32 0 0 0 7.9 35.74c-.009.512-.269.789-.78.829a1.138 1.138 0 0 1-.732-.488 16.716 16.716 0 0 1-2.243-6.923c-.065-2.47-.065-4.941 0-7.412.269-.804.805-1.324 1.61-1.56ZM49.928 27.11v4.973c-.454 2.55-1.754 4.548-3.9 5.997-3.02 1.736-6.044 1.752-9.07.05a17.652 17.652 0 0 1-5.948 4.534c4.526 0 9.044.066 13.555.195.371 2.343-.539 4-2.73 4.973a5.33 5.33 0 0 1-.683.195 33.244 33.244 0 0 1-4.876.097c-.685-.403-.75-.89-.195-1.462l4.29-.098c1.334-.213 2.244-.944 2.73-2.194-13.814-.13-27.628-.13-41.443 0 .476 1.263 1.386 1.995 2.73 2.194l29.255.098a.457.457 0 0 1 .341.341c.194.57.016.943-.536 1.121l-14.579.05c-5.09.014-10.176-.035-15.26-.147C1.704 47.538.501 46.352 0 44.467v-1.364c.08-.16.21-.275.39-.342l13.262-.097a19.242 19.242 0 0 1-4.632-3.267c-.26-.65-.048-1.073.634-1.268.166.04.328.088.488.146 2.763 2.682 6.079 4.145 9.946 4.389 2.32.129 4.627.031 6.924-.293 6.017-1.499 9.901-5.22 11.653-11.165.183-.739.313-1.486.39-2.243a119.5 119.5 0 0 0 0-6.826.457.457 0 0 0-.341-.342l-7.606-.097c-.61-.44-.642-.928-.098-1.463a163.72 163.72 0 0 1 7.996 0c.932.253 1.501.854 1.707 1.804 3.449-1.13 6.212-.22 8.289 2.73.417.75.726 1.53.926 2.34Zm-7.509-3.998c2.602-.173 4.47.9 5.607 3.218.254.625.384 1.275.39 1.95a22.955 22.955 0 0 1-.097 3.706c-.656 3.094-2.525 4.995-5.607 5.704-1.737.314-3.363.022-4.876-.877.298-.45.607-.89.926-1.317 2.81 1.282 5.183.73 7.12-1.657a6.363 6.363 0 0 0 .78-1.95 16.037 16.037 0 0 0-.05-4.633c-.727-1.86-2.093-2.672-4.095-2.438-.617.19-1.234.368-1.853.537-.016-.554 0-1.107.049-1.658a17.688 17.688 0 0 1 1.706-.585Zm.293 3.218c1.142-.136 1.939.319 2.389 1.365a14.05 14.05 0 0 1 0 3.998c-.922 2.497-2.661 3.358-5.217 2.584-.2-.067-.363-.18-.488-.341a17.026 17.026 0 0 0 1.317-6.826c.679-.251 1.345-.511 1.999-.78Z" clip-rule="evenodd" opacity=".933"/></svg>